# xmcd CD database file
#
# Track frame offsets:
#	150
#	16096
#	34987
#	53061
#	72170
#	90318
#	108986
#	126337
#	140940
#	155386
#	169998
#	186847
#	204157
#
# Disc length: 2967 seconds
#
# Revision: 0
# Processed by: cddbd v1.5.1PL0 Copyright (c) Steve Scherf et al.
# Submitted via: CDex 1.51
#
DISCID=af0b950d
DTITLE=Fdo. Villalona - Fernando Villalona 
DYEAR=1900
DGENRE=Merengue
TTITLE0=Morir Sonando
TTITLE1=La Cartita 
TTITLE2=Hablame 
TTITLE3=Payaso 
TTITLE4=Si Dios Me Quita La Vida
TTITLE5=Mala 
TTITLE6=Vida Consentida
TTITLE7=Que Te Pasa
TTITLE8=Sin Sangre En Las Venas
TTITLE9=Delirante Amor
TTITLE10=Soy Culpable
TTITLE11=Respeta Mi Dolor
TTITLE12=Quitame La Pena
EXTD=
EXTT0=
EXTT1=
EXTT2=
EXTT3=
EXTT4=
EXTT5=
EXTT6=
EXTT7=
EXTT8=
EXTT9=
EXTT10=
EXTT11=
EXTT12=
PLAYORDER=
